<svg version="1.1" id="Layer_1" xmlns="http://www.w3.org/2000/svg" xmlns:xlink="http://www.w3.org/1999/xlink" x="0px" y="0px"
	 width="100%" viewBox="0 0 512 512" enable-background="new 0 0 512 512" xml:space="preserve">
<path fill="#000000" opacity="1.000000" stroke="none" 
	d="
M513.000000,225.000000 
	C513.000000,320.961884 513.000000,416.923737 513.000000,512.942810 
	C342.439270,512.942810 171.878479,512.942810 1.000000,512.942810 
	C1.000000,417.310913 1.000000,321.621490 1.315860,225.149750 
	C3.775166,229.354614 5.457642,234.609695 8.165518,239.268814 
	C12.708816,247.085907 18.271294,254.088867 27.958641,256.529480 
	C27.992786,261.804108 27.954355,266.617767 28.006611,271.430420 
	C28.097273,279.780151 34.280033,285.967010 42.495708,286.003571 
	C47.307945,286.024963 52.120117,286.059204 56.961769,286.549988 
	C56.983814,333.322540 56.976414,379.632721 56.515774,426.046631 
	C49.347214,426.770081 42.579487,427.053192 35.928852,428.088470 
	C25.921513,429.646301 14.920622,441.322876 14.984959,452.452881 
	C15.051403,463.947540 14.969970,475.443024 15.010832,486.937958 
	C15.037504,494.441101 19.544411,498.997681 26.846672,498.997803 
	C180.280838,499.000610 333.714996,499.000488 487.149170,498.997681 
	C494.257721,498.997559 498.925812,494.523712 498.976166,487.418518 
	C499.061218,475.424255 499.291229,463.419769 498.914429,451.436798 
	C498.562592,440.248322 487.717010,429.624359 478.128418,428.081146 
	C471.162048,426.959930 464.068573,426.628479 457.017883,425.479919 
	C457.025208,378.705841 457.046478,332.396729 457.530518,286.050385 
	C462.474060,286.009460 466.954834,286.012054 471.435516,286.000702 
	C478.057739,285.983917 483.625061,282.593506 484.824890,276.170410 
	C486.048187,269.621552 485.719635,262.782837 486.448608,256.040405 
	C487.465698,255.904480 488.168060,255.935974 488.734467,255.673721 
	C500.929504,250.027359 506.892761,239.465576 511.041016,227.438477 
	C511.360992,226.510788 512.331726,225.807556 513.000000,225.000000 
z"/>
<path fill="#000000" opacity="1.000000" stroke="none" 
	d="
M291.000000,0.999997 
	C364.921173,1.000000 438.842316,1.000000 513.000000,1.000000 
	C513.000000,63.687363 513.000000,126.375023 512.690735,189.856049 
	C510.160736,185.538986 508.209778,180.289215 505.658569,175.349426 
	C501.399994,167.103622 495.939911,159.979858 486.042297,157.470490 
	C486.006653,152.342789 486.105133,147.673416 485.977722,143.010208 
	C485.784760,135.947952 478.278564,127.759026 472.262268,128.006348 
	C467.184845,128.215073 462.114014,128.584457 457.022461,128.421921 
	C456.877106,121.682114 457.595001,115.244743 456.454285,109.155548 
	C453.675110,94.320084 443.036896,87.581413 429.073792,84.441246 
	C427.995850,78.053963 427.906006,71.725021 425.680481,66.266899 
	C423.542480,61.023411 419.684387,56.212315 415.707977,52.045372 
	C408.250702,44.230782 398.096130,43.300720 387.818787,42.511757 
	C376.252075,29.843077 362.097900,21.742931 346.521484,15.870535 
	C329.183105,9.333854 311.438049,4.492273 292.892853,2.913411 
	C292.212555,2.855492 291.628784,1.663483 291.000000,0.999997 
z"/>
<path fill="#000000" opacity="1.000000" stroke="none" 
	d="
M1.000002,190.000000 
	C1.000000,127.067108 1.000000,64.134216 1.000000,1.000000 
	C74.687439,1.000000 148.375061,1.000000 222.868103,1.334425 
	C222.839355,2.109222 222.048889,2.794709 221.164337,2.952350 
	C211.464478,4.681033 201.607620,5.751322 192.067184,8.108503 
	C167.431442,14.195318 144.168320,23.220152 125.776825,42.120842 
	C123.334854,42.370426 121.243752,42.688313 119.154701,43.019100 
	C107.533806,44.859165 97.621933,49.318577 91.323174,60.047047 
	C86.779442,67.786232 84.901199,76.063850 84.473679,84.937805 
	C79.705223,86.485199 74.890480,87.275307 71.043106,89.639603 
	C61.513405,95.495758 56.946007,104.419945 56.945751,115.723267 
	C56.945656,120.092079 56.335068,124.460876 55.542213,128.902924 
	C51.611862,128.982864 48.141624,129.018692 44.672058,128.985016 
	C42.688133,128.965744 40.490337,128.235428 38.759975,128.857559 
	C32.015572,131.282410 28.025234,137.399460 27.997604,144.546326 
	C27.980358,149.007065 27.951183,153.467758 27.551258,157.960114 
	C23.547392,160.054153 19.454277,161.587402 16.385906,164.285873 
	C9.367049,170.458588 6.173172,179.079773 2.963025,187.595428 
	C2.617053,188.513214 1.668850,189.203949 1.000002,190.000000 
z"/>
<path fill="#FECB4D" opacity="1.000000" stroke="none" 
	d="
M126.128639,42.195107 
	C144.168320,23.220152 167.431442,14.195318 192.067184,8.108503 
	C201.607620,5.751322 211.464478,4.681033 221.164337,2.952350 
	C222.048889,2.794709 222.839355,2.109222 223.336761,1.334425 
	C245.354233,1.000000 267.708466,1.000000 290.531342,0.999997 
	C291.628784,1.663483 292.212555,2.855492 292.892853,2.913411 
	C311.438049,4.492273 329.183105,9.333854 346.521484,15.870535 
	C362.097900,21.742931 376.252075,29.843077 387.467712,42.748108 
	C374.543335,43.346798 361.805237,43.430424 348.845856,43.285854 
	C341.626495,36.057240 333.003815,31.666878 323.847107,28.479866 
	C283.971039,14.600931 243.492462,14.390314 202.855316,24.389507 
	C188.919312,27.818611 175.475159,32.990181 164.474442,43.605331 
	C152.817871,43.717560 141.616180,43.793888 130.416229,43.688583 
	C128.982468,43.675102 127.557617,42.716095 126.128639,42.195107 
z"/>
<path fill="#F4900C" opacity="1.000000" stroke="none" 
	d="
M1.000002,190.468658 
	C1.668850,189.203949 2.617053,188.513214 2.963025,187.595428 
	C6.173172,179.079773 9.367049,170.458588 16.385906,164.285873 
	C19.454277,161.587402 23.547392,160.054153 27.816235,158.289627 
	C28.654249,159.886688 29.021660,161.185715 29.023094,162.485123 
	C29.055811,192.111343 29.065641,221.737671 29.000980,251.363800 
	C28.997557,252.932648 28.300848,254.499985 27.926886,256.068024 
	C18.271294,254.088867 12.708816,247.085907 8.165518,239.268814 
	C5.457642,234.609695 3.775166,229.354614 1.315860,224.683716 
	C1.000000,213.645767 1.000000,202.291550 1.000002,190.468658 
z"/>
<path fill="#F4900C" opacity="1.000000" stroke="none" 
	d="
M486.075317,157.931580 
	C495.939911,159.979858 501.399994,167.103622 505.658569,175.349426 
	C508.209778,180.289215 510.160736,185.538986 512.690735,190.324707 
	C513.000000,201.354233 513.000000,212.708450 513.000000,224.531342 
	C512.331726,225.807556 511.360992,226.510788 511.041016,227.438477 
	C506.892761,239.465576 500.929504,250.027359 488.734467,255.673721 
	C488.168060,255.935974 487.465698,255.904480 486.179626,255.713928 
	C485.341766,254.450882 484.985046,253.483887 484.984009,252.516525 
	C484.952271,222.391083 484.940155,192.265579 485.000549,162.140228 
	C485.003387,160.736633 485.701172,159.334427 486.075317,157.931580 
z"/>
<path fill="#56ACEE" opacity="1.000000" stroke="none" 
	d="
M56.002609,128.829681 
	C56.335068,124.460876 56.945656,120.092079 56.945751,115.723267 
	C56.946007,104.419945 61.513405,95.495758 71.043106,89.639603 
	C74.890480,87.275307 79.705223,86.485199 84.873016,85.102997 
	C87.440056,85.532722 89.213707,86.104836 90.987579,86.105515 
	C201.618454,86.147942 312.249329,86.150635 422.880188,86.091125 
	C424.963013,86.090012 427.045471,85.301491 429.128082,84.880356 
	C443.036896,87.581413 453.675110,94.320084 456.454285,109.155548 
	C457.595001,115.244743 456.877106,121.682114 456.700928,128.711044 
	C456.297882,130.283218 456.112030,131.105408 456.111786,131.927673 
	C456.097076,181.899811 456.089569,231.871948 456.137390,281.844055 
	C456.138733,283.258881 456.744019,284.673126 457.067719,286.087646 
	C457.046478,332.396729 457.025208,378.705841 456.800171,425.811401 
	C454.398071,427.059082 452.200531,427.899963 450.001465,427.903900 
	C406.706543,427.981323 363.411346,428.007111 320.116638,427.885834 
	C316.125153,427.874664 313.275574,429.072754 310.490662,431.906891 
	C296.719208,445.921692 282.774506,459.766388 268.868256,473.648407 
	C260.540863,481.961243 253.487244,481.994476 245.277756,473.790863 
	C231.378647,459.901703 217.417130,446.073425 203.664291,432.040741 
	C200.738907,429.055786 197.760834,427.865631 193.588440,427.878632 
	C150.293839,428.013367 106.998543,427.991638 63.703823,427.875488 
	C61.457176,427.869476 59.213875,426.615753 56.969017,425.942932 
	C56.976414,379.632721 56.983814,333.322540 57.233269,286.221985 
	C57.598045,284.951294 57.827946,284.470978 57.828285,283.990540 
	C57.864277,233.407593 57.895443,182.824615 57.823349,132.241791 
	C57.821728,131.103561 56.636002,129.967010 56.002609,128.829681 
M268.067291,327.877167 
	C260.149597,328.057800 252.231873,328.238434 243.474243,328.259155 
	C229.005692,328.251740 214.537155,328.244293 199.147278,327.990936 
	C190.073349,328.075592 180.999435,328.160217 171.003189,328.142456 
	C157.013031,328.497070 143.022888,328.851685 128.277634,329.145050 
	C108.134247,333.982941 96.843193,352.166351 101.415985,372.403748 
	C104.339584,385.342438 116.729439,396.885132 129.750763,398.264801 
	C143.830429,398.500671 157.910095,398.736542 172.782074,399.118164 
	C173.853333,399.089569 174.924591,399.060974 176.929642,399.134735 
	C184.620453,399.085205 192.311249,399.035706 200.933563,399.099365 
	C214.954956,399.060944 228.976364,399.022552 243.926315,399.127869 
	C252.950470,399.080414 261.974640,399.032959 271.930969,399.096344 
	C285.950439,399.058838 299.969940,399.021362 314.919952,399.126556 
	C323.949768,399.076141 332.979584,399.025726 342.939697,399.091309 
	C348.735413,399.111969 354.535278,399.280518 360.325836,399.117889 
	C368.574280,398.886353 376.815857,398.411743 385.844116,398.114563 
	C407.635193,393.838318 420.122894,368.849762 410.300079,348.748688 
	C405.132599,338.174164 397.033722,331.009216 384.130737,328.994598 
	C370.116425,328.743469 356.102112,328.492340 341.162811,327.995087 
	C332.083160,328.075134 323.003540,328.155212 313.001129,328.139160 
	C299.026184,328.170197 285.051270,328.201202 270.405090,328.009949 
	C269.936432,328.003235 269.467804,327.996521 268.067291,327.877167 
M151.995682,144.381882 
	C118.127678,152.553024 97.474869,181.032547 100.988876,214.718552 
	C104.611023,249.441254 138.057663,275.654938 172.467758,270.739899 
	C209.035812,265.516571 233.806671,232.273788 227.726212,196.889404 
	C221.370682,159.904251 186.313202,137.737518 151.995682,144.381882 
M294.463531,239.956299 
	C311.007080,266.639740 342.166748,277.769165 371.214874,267.369873 
	C399.813416,257.131561 416.843719,228.608643 412.804108,197.714874 
	C408.429291,164.257523 374.808746,138.716049 341.639099,143.650909 
	C295.395752,150.530838 271.792206,198.027756 294.463531,239.956299 
z"/>
<path fill="#3B88C3" opacity="1.000000" stroke="none" 
	d="
M56.515778,426.046631 
	C59.213875,426.615753 61.457176,427.869476 63.703823,427.875488 
	C106.998543,427.991638 150.293839,428.013367 193.588440,427.878632 
	C197.760834,427.865631 200.738907,429.055786 203.664291,432.040741 
	C217.417130,446.073425 231.378647,459.901703 245.277756,473.790863 
	C253.487244,481.994476 260.540863,481.961243 268.868256,473.648407 
	C282.774506,459.766388 296.719208,445.921692 310.490662,431.906891 
	C313.275574,429.072754 316.125153,427.874664 320.116638,427.885834 
	C363.411346,428.007111 406.706543,427.981323 450.001465,427.903900 
	C452.200531,427.899963 454.398071,427.059082 456.814056,426.276398 
	C464.068573,426.628479 471.162048,426.959930 478.128418,428.081146 
	C487.717010,429.624359 498.562592,440.248322 498.914429,451.436798 
	C499.291229,463.419769 499.061218,475.424255 498.976166,487.418518 
	C498.925812,494.523712 494.257721,498.997559 487.149170,498.997681 
	C333.714996,499.000488 180.280838,499.000610 26.846672,498.997803 
	C19.544411,498.997681 15.037504,494.441101 15.010832,486.937958 
	C14.969970,475.443024 15.051403,463.947540 14.984959,452.452881 
	C14.920622,441.322876 25.921513,429.646301 35.928852,428.088470 
	C42.579487,427.053192 49.347214,426.770081 56.515778,426.046631 
z"/>
<path fill="#FDAC35" opacity="1.000000" stroke="none" 
	d="
M457.530518,286.050385 
	C456.744019,284.673126 456.138733,283.258881 456.137390,281.844055 
	C456.089569,231.871948 456.097076,181.899811 456.111786,131.927673 
	C456.112030,131.105408 456.297882,130.283218 456.718719,129.171860 
	C462.114014,128.584457 467.184845,128.215073 472.262268,128.006348 
	C478.278564,127.759026 485.784760,135.947952 485.977722,143.010208 
	C486.105133,147.673416 486.006653,152.342789 486.042297,157.470490 
	C485.701172,159.334427 485.003387,160.736633 485.000549,162.140228 
	C484.940155,192.265579 484.952271,222.391083 484.984009,252.516525 
	C484.985046,253.483887 485.341766,254.450882 485.801605,255.744537 
	C485.719635,262.782837 486.048187,269.621552 484.824890,276.170410 
	C483.625061,282.593506 478.057739,285.983917 471.435516,286.000702 
	C466.954834,286.012054 462.474060,286.009460 457.530518,286.050385 
z"/>
<path fill="#FDAC35" opacity="1.000000" stroke="none" 
	d="
M55.542217,128.902924 
	C56.636002,129.967010 57.821728,131.103561 57.823349,132.241791 
	C57.895443,182.824615 57.864277,233.407593 57.828285,283.990540 
	C57.827946,284.470978 57.598045,284.951294 57.203819,285.759674 
	C52.120117,286.059204 47.307945,286.024963 42.495708,286.003571 
	C34.280033,285.967010 28.097273,279.780151 28.006611,271.430420 
	C27.954355,266.617767 27.992786,261.804108 27.958641,256.529480 
	C28.300848,254.499985 28.997557,252.932648 29.000980,251.363800 
	C29.065641,221.737671 29.055811,192.111343 29.023094,162.485123 
	C29.021660,161.185715 28.654249,159.886688 28.192337,158.257996 
	C27.951183,153.467758 27.980358,149.007065 27.997604,144.546326 
	C28.025234,137.399460 32.015572,131.282410 38.759975,128.857559 
	C40.490337,128.235428 42.688133,128.965744 44.672058,128.985016 
	C48.141624,129.018692 51.611862,128.982864 55.542217,128.902924 
z"/>
<path fill="#226699" opacity="1.000000" stroke="none" 
	d="
M429.073792,84.441246 
	C427.045471,85.301491 424.963013,86.090012 422.880188,86.091125 
	C312.249329,86.150635 201.618454,86.147942 90.987579,86.105515 
	C89.213707,86.104836 87.440056,85.532722 85.266968,85.062088 
	C84.901199,76.063850 86.779442,67.786232 91.323174,60.047047 
	C97.621933,49.318577 107.533806,44.859165 119.154701,43.019100 
	C121.243752,42.688313 123.334854,42.370426 125.776825,42.120842 
	C127.557617,42.716095 128.982468,43.675102 130.416229,43.688583 
	C141.616180,43.793888 152.817871,43.717560 164.945358,43.701393 
	C226.111649,43.723194 286.351593,43.741890 346.591522,43.748444 
	C347.416718,43.748531 348.241943,43.595573 349.067139,43.514046 
	C361.805237,43.430424 374.543335,43.346798 387.632507,43.026825 
	C398.096130,43.300720 408.250702,44.230782 415.707977,52.045372 
	C419.684387,56.212315 423.542480,61.023411 425.680481,66.266899 
	C427.906006,71.725021 427.995850,78.053963 429.073792,84.441246 
z"/>
<path fill="#F0900F" opacity="1.000000" stroke="none" 
	d="
M348.845856,43.285854 
	C348.241943,43.595573 347.416718,43.748531 346.591522,43.748444 
	C286.351593,43.741890 226.111649,43.723194 165.400787,43.609421 
	C175.475159,32.990181 188.919312,27.818611 202.855316,24.389507 
	C243.492462,14.390314 283.971039,14.600931 323.847107,28.479866 
	C333.003815,31.666878 341.626495,36.057240 348.845856,43.285854 
z"/>
<path fill="#FDFDFE" opacity="1.000000" stroke="none" 
	d="
M152.415604,144.308762 
	C186.313202,137.737518 221.370682,159.904251 227.726212,196.889404 
	C233.806671,232.273788 209.035812,265.516571 172.467758,270.739899 
	C138.057663,275.654938 104.611023,249.441254 100.988876,214.718552 
	C97.474869,181.032547 118.127678,152.553024 152.415604,144.308762 
M197.931534,187.634201 
	C186.615463,170.010773 166.131973,163.698975 147.972610,172.239853 
	C130.601685,180.409897 121.897446,200.334305 127.659019,218.738647 
	C134.427338,240.358871 157.972549,251.566849 178.949905,243.154129 
	C200.666245,234.445023 209.323807,209.900955 197.931534,187.634201 
z"/>
<path fill="#FDFDFE" opacity="1.000000" stroke="none" 
	d="
M294.280640,239.636780 
	C271.792206,198.027756 295.395752,150.530838 341.639099,143.650909 
	C374.808746,138.716049 408.429291,164.257523 412.804108,197.714874 
	C416.843719,228.608643 399.813416,257.131561 371.214874,267.369873 
	C342.166748,277.769165 311.007080,266.639740 294.280640,239.636780 
M349.496338,168.616272 
	C322.401672,169.602097 304.474976,194.127304 312.588470,219.109314 
	C318.619995,237.680786 337.544617,248.926285 356.605652,245.265488 
	C376.061951,241.528778 389.218140,224.404221 388.016602,204.379959 
	C386.839813,184.769241 371.214203,169.898117 349.496338,168.616272 
z"/>
<path fill="#F4F7FA" opacity="1.000000" stroke="none" 
	d="
M200.068604,328.236847 
	C214.537155,328.244293 229.005692,328.251740 243.738647,328.711609 
	C243.948151,329.423553 243.893250,329.683075 243.685638,330.333344 
	C243.338882,332.363770 242.977951,334.003265 242.976120,335.643158 
	C242.953766,355.762085 242.983994,375.881042 242.987183,396.372925 
	C242.981766,397.491943 242.989761,398.238037 242.997757,398.984131 
	C228.976364,399.022552 214.954956,399.060944 200.467041,398.710999 
	C199.976532,397.880951 199.952530,397.439270 199.948975,396.529449 
	C200.002487,373.453186 200.035538,350.845001 200.068604,328.236847 
z"/>
<path fill="#F4F7FA" opacity="1.000000" stroke="none" 
	d="
M271.076324,328.232208 
	C285.051270,328.201202 299.026184,328.170197 313.471069,328.636414 
	C313.957153,352.417084 313.973297,375.700500 313.989410,398.983887 
	C299.969940,399.021362 285.950439,399.058838 271.473877,398.667847 
	C271.009094,397.493073 271.001373,396.746765 271.009949,395.531921 
	C271.014557,373.707916 271.002899,352.352417 271.006042,330.650299 
	C271.039398,329.613190 271.057861,328.922699 271.076324,328.232208 
z"/>
<path fill="#F4F8FA" opacity="1.000000" stroke="none" 
	d="
M342.087799,328.241211 
	C356.102112,328.492340 370.116425,328.743469 384.546997,329.554138 
	C384.995636,352.756134 385.027985,375.398529 385.060364,398.040955 
	C376.815857,398.411743 368.574280,398.886353 360.325836,399.117889 
	C354.535278,399.280518 348.735413,399.111969 342.487854,398.566803 
	C342.053253,374.775269 342.070526,351.508240 342.087799,328.241211 
z"/>
<path fill="#F4F8FA" opacity="1.000000" stroke="none" 
	d="
M171.989761,398.972412 
	C157.910095,398.736542 143.830429,398.500671 129.350372,397.682098 
	C128.977570,374.468353 129.005157,351.837341 129.032730,329.206299 
	C143.022888,328.851685 157.013031,328.497070 171.461243,328.642090 
	C171.942795,352.418640 171.966278,375.695526 171.989761,398.972412 
z"/>
<path fill="#CCD7DF" opacity="1.000000" stroke="none" 
	d="
M341.625305,328.118164 
	C342.070526,351.508240 342.053253,374.775269 342.022705,398.508820 
	C332.979584,399.025726 323.949768,399.076141 314.454681,399.055237 
	C313.973297,375.700500 313.957153,352.417084 313.932465,328.684479 
	C323.003540,328.155212 332.083160,328.075134 341.625305,328.118164 
z"/>
<path fill="#CCD6DD" opacity="1.000000" stroke="none" 
	d="
M172.385925,399.045288 
	C171.966278,375.695526 171.942795,352.418640 171.922409,328.693298 
	C180.999435,328.160217 190.073349,328.075592 199.607941,328.113892 
	C200.035538,350.845001 200.002487,373.453186 199.488159,396.530060 
	C192.850021,396.999847 186.688293,396.869049 180.539658,397.094696 
	C179.003418,397.151093 177.509323,398.355560 175.995850,399.032379 
	C174.924591,399.060974 173.853333,399.089569 172.385925,399.045288 
z"/>
<path fill="#CBD6DE" opacity="1.000000" stroke="none" 
	d="
M128.655182,329.175659 
	C129.005157,351.837341 128.977570,374.468353 128.943512,397.571198 
	C116.729439,396.885132 104.339584,385.342438 101.415985,372.403748 
	C96.843193,352.166351 108.134247,333.982941 128.655182,329.175659 
z"/>
<path fill="#CBD6DE" opacity="1.000000" stroke="none" 
	d="
M385.452240,398.077759 
	C385.027985,375.398529 384.995636,352.756134 384.957581,329.662292 
	C397.033722,331.009216 405.132599,338.174164 410.300079,348.748688 
	C420.122894,368.849762 407.635193,393.838318 385.452240,398.077759 
z"/>
<path fill="#CCD6DD" opacity="1.000000" stroke="none" 
	d="
M243.838333,329.942596 
	C243.893250,329.683075 243.948151,329.423553 244.158615,328.791534 
	C252.231873,328.238434 260.149597,328.057800 268.533508,328.268616 
	C268.999847,329.106689 268.999939,329.553345 268.853394,330.262970 
	C268.137878,331.350647 267.568939,332.175323 266.531738,333.000000 
	C260.042297,333.000000 254.021149,333.000000 247.787262,332.764160 
	C246.329117,331.666382 245.083725,330.804504 243.838333,329.942596 
z"/>
<path fill="#CCD7DF" opacity="1.000000" stroke="none" 
	d="
M270.993683,396.000458 
	C271.001373,396.746765 271.009094,397.493073 271.007782,398.612427 
	C261.974640,399.032959 252.950470,399.080414 243.462036,399.056000 
	C242.989761,398.238037 242.981766,397.491943 243.397705,396.450378 
	C252.878998,396.103394 261.936340,396.051910 270.993683,396.000458 
z"/>
<path fill="#CCD7DF" opacity="1.000000" stroke="none" 
	d="
M176.462738,399.083557 
	C177.509323,398.355560 179.003418,397.151093 180.539658,397.094696 
	C186.688293,396.869049 192.850021,396.999847 199.467712,396.998169 
	C199.952530,397.439270 199.976532,397.880951 200.001282,398.654419 
	C192.311249,399.035706 184.620453,399.085205 176.462738,399.083557 
z"/>
<path fill="#CCD7DF" opacity="1.000000" stroke="none" 
	d="
M269.000000,330.000000 
	C268.999939,329.553345 268.999847,329.106689 268.999451,328.324921 
	C269.467804,327.996521 269.936432,328.003235 270.740723,328.121094 
	C271.057861,328.922699 271.039398,329.613190 270.754974,330.530426 
	C269.992676,330.504791 269.496338,330.252411 269.000000,330.000000 
z"/>
<path fill="#DD3046" opacity="1.000000" stroke="none" 
	d="
M198.121277,187.949829 
	C209.323807,209.900955 200.666245,234.445023 178.949905,243.154129 
	C157.972549,251.566849 134.427338,240.358871 127.659019,218.738647 
	C121.897446,200.334305 130.601685,180.409897 147.972610,172.239853 
	C166.131973,163.698975 186.615463,170.010773 198.121277,187.949829 
z"/>
<path fill="#DD3046" opacity="1.000000" stroke="none" 
	d="
M349.970703,168.619492 
	C371.214203,169.898117 386.839813,184.769241 388.016602,204.379959 
	C389.218140,224.404221 376.061951,241.528778 356.605652,245.265488 
	C337.544617,248.926285 318.619995,237.680786 312.588470,219.109314 
	C304.474976,194.127304 322.401672,169.602097 349.970703,168.619492 
z"/>
<path fill="#CCD6DD" opacity="1.000000" stroke="none" 
	d="
M268.853394,330.262970 
	C269.496338,330.252411 269.992676,330.504791 270.740112,330.877045 
	C271.002899,352.352417 271.014557,373.707916 271.009949,395.531921 
	C261.936340,396.051910 252.878998,396.103394 243.411133,396.077454 
	C242.983994,375.881042 242.953766,355.762085 242.976120,335.643158 
	C242.977951,334.003265 243.338882,332.363770 243.685638,330.333344 
	C245.083725,330.804504 246.329117,331.666382 247.787262,333.232788 
	C248.000000,350.217651 247.883911,366.499023 248.034912,382.777954 
	C248.167496,397.070831 245.618790,394.813629 260.443268,394.969299 
	C266.310303,395.030914 266.987244,394.232758 266.993073,388.319855 
	C267.011261,369.879913 266.999908,351.439941 267.000000,333.000000 
	C267.568939,332.175323 268.137878,331.350647 268.853394,330.262970 
z"/>
<path fill="#CCD6DD" opacity="1.000000" stroke="none" 
	d="
M266.531738,333.000000 
	C266.999908,351.439941 267.011261,369.879913 266.993073,388.319855 
	C266.987244,394.232758 266.310303,395.030914 260.443268,394.969299 
	C245.618790,394.813629 248.167496,397.070831 248.034912,382.777954 
	C247.883911,366.499023 248.000000,350.217651 248.000000,333.468658 
	C254.021149,333.000000 260.042297,333.000000 266.531738,333.000000 
z"/>
</svg>